<svg width="88" height="88" viewBox="0 0 88 88" fill="none" xmlns="http://www.w3.org/2000/svg">
  <path d="M44 76C62.2 76 76 62.7 76 44C76 25.3 62.2 12 44 12C25.8 12 12 25.3 12 44C12 62.7 25.8 76 44 76Z" stroke="#5659A9" stroke-width="4.2" stroke-linecap="round"/>
  <path d="M31 35.5C31.8 33.2 34.8 33.2 36 35.5" stroke="#5659A9" stroke-width="4.2" stroke-linecap="round"/>
  <path d="M52 35.5C52.8 33.2 55.8 33.2 57 35.5" stroke="#5659A9" stroke-width="4.2" stroke-linecap="round"/>
  <path d="M29 51C34 60 53 62 60 50" stroke="#5659A9" stroke-width="4.2" stroke-linecap="round"/>
  <path d="M21 20C27 15 34 11 43 10" stroke="#5659A9" stroke-width="3" stroke-linecap="round" opacity="0.55"/>
</svg>
