<svg width="96" height="96" viewBox="0 0 96 96" fill="none" xmlns="http://www.w3.org/2000/svg">
  <path d="M48 49C42 39 30 34 24 40C18 46 27 58 39 55C27 61 24 75 32 79C41 83 49 69 48 56C51 69 63 80 71 74C79 68 69 56 56 53C69 53 81 44 76 36C70 27 56 37 51 48C55 34 50 21 41 23C32 25 36 40 48 49Z" stroke="#5659A9" stroke-width="4.2" stroke-linecap="round" stroke-linejoin="round"/>
  <circle cx="49" cy="52" r="7" stroke="#5659A9" stroke-width="4.2"/>
  <path d="M44 63C40 69 37 76 36 84" stroke="#5659A9" stroke-width="4.2" stroke-linecap="round"/>
  <path d="M38 73C31 70 25 71 20 77" stroke="#5659A9" stroke-width="4.2" stroke-linecap="round"/>
</svg>
